<?xml version="1.0" encoding="UTF-8"?>
<svg version="1.1" viewBox="0 0 2000 2000" xmlns="http://www.w3.org/2000/svg">
  <g transform="rotate(45 1560.7 -3042.3)">
    <path d="m4234.5-435.59a94.729 94.729 0 0 0-35.299 4.6641 94.729 94.729 0 0 0-31.08 17.367c-8.9345 7.4932-17.884 14.773-26.838 21.846-8.9534 7.0722-17.911 13.936-26.865 20.6-8.9542 6.6634-17.905 13.126-26.842 19.393s-17.86 12.337-26.762 18.219c-17.803 11.764-35.515 22.772-53.066 33.07-17.552 10.298-34.942 19.887-52.098 28.816-17.155 8.9292-34.076 17.198-50.69 24.855-16.614 7.6572-32.922 14.703-48.85 21.186-15.927 6.4822-31.475 12.401-46.57 17.805-15.096 5.404-29.739 10.292-43.857 14.715-14.119 4.4228-27.712 8.3794-40.709 11.918s-25.396 6.6608-37.125 9.4121c-11.729 2.7513-22.79 5.1325-33.107 7.1934-10.317 2.0609-19.891 3.8002-28.65 5.2676-17.518 2.9348-31.777 4.7812-42.193 5.9238-10.417 1.1426-16.991 1.5812-19.145 1.707h-235.64a284.48 284.48 0 0 0-55.422 5.5098 284.48 284.48 0 0 0-53.285 16.203 284.48 284.48 0 0 0-49.109 26.273 284.48 284.48 0 0 0-43.047 35.338 284.48 284.48 0 0 0-35.338 43.049 284.48 284.48 0 0 0-26.275 49.107 284.48 284.48 0 0 0-16.201 53.287 284.48 284.48 0 0 0-5.5098 55.422 284.6 284.6 0 0 0 6 58.066 284.6 284.6 0 0 0 17.719 55.619 284.6 284.6 0 0 0 28.695 50.836 284.6 284.6 0 0 0 38.465 43.912 284.6 284.6 0 0 0 46.613 35.139 284.6 284.6 0 0 0 52.803 24.891 284.6 284.6 0 0 0 56.772 13.594l69.686 262.64a94.729 94.729 0 0 0 15.371 32.477 94.729 94.729 0 0 0 26.361 24.416 94.729 94.729 0 0 0 33.559 12.844 94.729 94.729 0 0 0 35.926-0.5801 94.729 94.729 0 0 0 33.127-13.918l65.127-43.396a94.729 94.729 0 0 0 5.4023-3.8867 94.729 94.729 0 0 0 5.1152-4.2559 94.729 94.729 0 0 0 4.8067-4.6035 94.729 94.729 0 0 0 4.4687-4.9297 94.729 94.729 0 0 0 4.1133-5.2324 94.729 94.729 0 0 0 3.7363-5.5059 94.729 94.729 0 0 0 3.3399-5.7559 94.729 94.729 0 0 0 2.9258-5.9766 94.729 94.729 0 0 0 2.5-6.168 94.729 94.729 0 0 0 2.0625-6.3281 94.729 94.729 0 0 0 1.6113-6.4551 94.729 94.729 0 0 0 1.1543-6.5547 94.729 94.729 0 0 0 0.6914-6.6192 94.729 94.729 0 0 0 0.2265-6.6504v-187.8c12.367 1.8798 26.816 4.3632 43.072 7.6387 16.256 3.2755 34.318 7.3421 53.908 12.385 9.7953 2.5213 19.973 5.2876 30.498 8.3203 10.525 3.0328 21.397 6.3332 32.582 9.9238s22.684 7.4711 34.461 11.666 23.831 8.7032 36.129 13.549c12.298 4.8456 24.839 10.03 37.59 15.572 12.75 5.5428 25.71 11.444 38.844 17.73s26.443 12.957 39.891 20.033c13.447 7.0763 27.033 14.56 40.725 22.473s27.488 16.255 41.355 25.051 27.805 18.045 41.777 27.77c13.973 9.7249 27.981 19.926 41.99 30.627 14.009 10.701 28.02 21.9 41.996 33.623a94.729 94.729 0 0 0 31.09 17.369 94.729 94.729 0 0 0 35.309 4.6621 94.729 94.729 0 0 0 34.533-8.707 94.729 94.729 0 0 0 28.879-20.842 94.729 94.729 0 0 0 19.141-30.031 94.729 94.729 0 0 0 6.6992-34.979v-947.29a94.729 94.729 0 0 0-6.7168-34.965 94.729 94.729 0 0 0-19.15-30.016 94.729 94.729 0 0 0-28.879-20.826 94.729 94.729 0 0 0-34.525-8.6934zm-5.457 94.5v946.88c-15.852-13.269-31.726-25.919-47.584-37.979s-31.699-23.529-47.482-34.436c-15.784-10.907-31.511-21.252-47.141-31.064s-31.163-19.092-46.56-27.867-30.659-17.045-45.744-24.842c-15.086-7.7964-29.995-15.119-44.69-21.994-14.694-6.8753-29.173-13.304-43.396-19.316s-28.192-11.606-41.865-16.812c-13.674-5.2064-27.053-10.026-40.098-14.484-13.045-4.4587-25.756-8.5574-38.092-12.326-12.336-3.7688-24.297-7.207-35.846-10.344s-22.684-5.9726-33.365-8.5352c-10.681-2.5625-20.91-4.8524-30.644-6.8984-9.735-2.0461-18.976-3.8481-27.686-5.4356-17.419-3.1749-32.707-5.4904-45.547-7.1777v-387.68c12.855-1.6578 28.157-3.9494 45.588-7.1055 8.7157-1.578 17.964-3.3729 27.705-5.4121s19.972-4.3228 30.658-6.8809 21.826-5.3906 33.379-8.5254 23.518-6.5707 35.857-10.34c12.339-3.7691 25.051-7.8708 38.098-12.332 13.047-4.4612 26.427-9.2831 40.102-14.494 13.675-5.211 27.644-10.811 41.867-16.83 14.223-6.0186 28.702-12.454 43.395-19.338 14.693-6.8839 29.599-14.217 44.682-22.023s30.341-16.089 45.734-24.877c15.393-8.7877 30.921-18.08 46.545-27.906 15.624-9.8262 31.345-20.185 47.121-31.107s31.607-22.408 47.455-34.484 31.713-24.743 47.555-38.031zm-899.93 284.19h189.46v378.92h-189.46a189.46 189.46 0 0 1-49.035-6.457 189.46 189.46 0 0 1-45.693-18.926 189.46 189.46 0 0 1-39.238-30.109 189.46 189.46 0 0 1-30.107-39.238 189.46 189.46 0 0 1-18.928-45.693 189.46 189.46 0 0 1-6.455-49.035 189.46 189.46 0 0 1 6.455-49.035 189.46 189.46 0 0 1 18.928-45.695 189.46 189.46 0 0 1 30.107-39.238 189.46 189.46 0 0 1 39.238-30.107 189.46 189.46 0 0 1 45.693-18.928 189.46 189.46 0 0 1 49.035-6.4551zm61.574 473.65h127.88v193.66l-65.125 43.398v-0.65234z" fill="#272a2d"/>
    <g fill="#0078a7">
      <path d="m3390.7 416.75 62.76 236.41v0.65234l65.125-43.398v-193.66z"/>
      <path d="m4229.1-341.09c-15.841 13.288-31.706 25.955-47.555 38.031s-31.679 23.562-47.455 34.484-31.497 21.281-47.121 31.107c-15.624 9.8262-31.152 19.119-46.545 27.906-15.393 8.7877-30.652 17.07-45.734 24.877s-29.989 15.14-44.682 22.023c-14.693 6.8839-29.171 13.319-43.395 19.338-14.223 6.0186-28.192 11.619-41.867 16.83-13.675 5.211-27.055 10.033-40.102 14.494-13.047 4.4612-25.758 8.5629-38.098 12.332-12.339 3.7691-24.305 7.2051-35.857 10.34s-22.693 5.9673-33.379 8.5254-20.918 4.8417-30.658 6.8809-18.989 3.8341-27.705 5.4121c-17.431 3.1561-32.733 5.4477-45.588 7.1055v387.68c12.84 1.6874 28.128 4.0028 45.547 7.1777 8.7093 1.5875 17.951 3.3895 27.686 5.4356 9.7349 2.0461 19.963 4.3359 30.644 6.8984 10.681 2.5625 21.817 5.3984 33.365 8.5352s23.51 6.5749 35.846 10.344c12.336 3.7688 25.047 7.8675 38.092 12.326 13.045 4.4587 26.424 9.278 40.098 14.484 13.674 5.2064 27.642 10.801 41.865 16.812s28.702 12.441 43.396 19.316c14.694 6.8753 29.604 14.198 44.69 21.994 15.085 7.7964 30.347 16.066 45.744 24.842s30.93 18.055 46.56 27.867 31.357 20.158 47.141 31.064c15.784 10.907 31.625 22.376 47.482 34.436s31.732 24.709 47.584 37.979z"/>
      <path d="m3329.2-56.901a189.46 189.46 0 0 0-49.035 6.4551 189.46 189.46 0 0 0-45.693 18.928 189.46 189.46 0 0 0-39.238 30.107 189.46 189.46 0 0 0-30.107 39.238 189.46 189.46 0 0 0-18.928 45.695 189.46 189.46 0 0 0-6.455 49.035 189.46 189.46 0 0 0 6.455 49.035 189.46 189.46 0 0 0 18.928 45.693 189.46 189.46 0 0 0 30.107 39.238 189.46 189.46 0 0 0 39.238 30.109 189.46 189.46 0 0 0 45.693 18.926 189.46 189.46 0 0 0 49.035 6.457h189.46v-378.92z"/>
    </g>
  </g>
  <g transform="matrix(.83696 .83696 -.83696 .83696 -3824.2 -3614.7)" fill="#b54548">
    <path d="m6304.5-567.32v87.714l-350.86 175.43v-87.714z"/>
    <path d="m5953.7-216.46h350.86v87.714h-350.86z"/>
    <path d="m5953.7-41.031 350.86 175.43v87.714l-350.86-175.43z"/>
  </g>
</svg>
